<svg width="20" height="20" viewBox="0 0 20 20" fill="none" xmlns="http://www.w3.org/2000/svg">
<path d="M8.28933 13C7.89607 13 7.58146 12.8861 7.34551 12.6583C7.11517 12.4306 7 12.125 7 11.7417C7 11.3361 7.12079 11.0222 7.36236 10.8C7.60955 10.5722 7.97191 10.4583 8.44944 10.4583H8.94663V9.54167H8.44944C7.97191 9.54167 7.60955 9.43055 7.36236 9.20833C7.12079 8.98055 7 8.66389 7 8.25833C7 7.875 7.11517 7.56944 7.34551 7.34167C7.58146 7.11389 7.89607 7 8.28933 7C8.60393 7 8.85112 7.05833 9.0309 7.175C9.21629 7.29167 9.34551 7.44722 9.41854 7.64167C9.49719 7.83611 9.53652 8.05 9.53652 8.28333V8.975H10.4635V8.28333C10.4635 8.05 10.5 7.83611 10.573 7.64167C10.6517 7.44722 10.7809 7.29167 10.9607 7.175C11.1461 7.05833 11.3961 7 11.7107 7C12.1039 7 12.4157 7.11389 12.6461 7.34167C12.882 7.56944 13 7.875 13 8.25833C13 8.66389 12.8792 8.98055 12.6376 9.20833C12.3961 9.43055 12.0337 9.54167 11.5506 9.54167H11.0534V10.4583H11.5506C12.0337 10.4583 12.3961 10.5722 12.6376 10.8C12.8792 11.0222 13 11.3361 13 11.7417C13 12.125 12.882 12.4306 12.6461 12.6583C12.4157 12.8861 12.1039 13 11.7107 13C11.3961 13 11.1461 12.9417 10.9607 12.825C10.7809 12.7083 10.6517 12.5528 10.573 12.3583C10.5 12.1639 10.4635 11.95 10.4635 11.7167V11.025H9.53652V11.7167C9.53652 11.95 9.49719 12.1639 9.41854 12.3583C9.34551 12.5528 9.21629 12.7083 9.0309 12.825C8.85112 12.9417 8.60393 13 8.28933 13ZM11.0534 8.26667V8.975H11.5506C11.8483 8.975 12.0646 8.91667 12.1994 8.8C12.3343 8.67778 12.4017 8.49722 12.4017 8.25833C12.4017 8.01389 12.3343 7.83889 12.1994 7.73333C12.0702 7.62778 11.9073 7.575 11.7107 7.575C11.4916 7.575 11.3258 7.63889 11.2135 7.76667C11.1067 7.88889 11.0534 8.05556 11.0534 8.26667ZM8.44944 8.975H8.94663V8.26667C8.94663 8.05556 8.89045 7.88889 8.77809 7.76667C8.67135 7.63889 8.50843 7.575 8.28933 7.575C8.0927 7.575 7.92697 7.62778 7.79213 7.73333C7.66292 7.83889 7.59831 8.01389 7.59831 8.25833C7.59831 8.49722 7.66573 8.67778 7.80056 8.8C7.93539 8.91667 8.15169 8.975 8.44944 8.975ZM9.53652 10.4583H10.4635V9.54167H9.53652V10.4583ZM8.28933 12.425C8.50843 12.425 8.67135 12.3639 8.77809 12.2417C8.89045 12.1139 8.94663 11.9444 8.94663 11.7333V11.025H8.44944C8.15169 11.025 7.93539 11.0861 7.80056 11.2083C7.66573 11.325 7.59831 11.5028 7.59831 11.7417C7.59831 11.9861 7.66292 12.1611 7.79213 12.2667C7.92697 12.3722 8.0927 12.425 8.28933 12.425ZM11.0534 11.7333C11.0534 11.9444 11.1067 12.1139 11.2135 12.2417C11.3258 12.3639 11.4916 12.425 11.7107 12.425C11.9073 12.425 12.0702 12.3722 12.1994 12.2667C12.3343 12.1611 12.4017 11.9861 12.4017 11.7417C12.4017 11.5028 12.3343 11.325 12.1994 11.2083C12.0646 11.0861 11.8483 11.025 11.5506 11.025H11.0534V11.7333Z" fill="white"/>
</svg>
