<svg width="20" height="20" viewBox="0 0 20 20" fill="none" xmlns="http://www.w3.org/2000/svg">
<path d="M10.003 13.9238C10.003 14.1456 9.90122 14.347 9.74193 14.4411C9.68035 14.4777 9.61435 14.4955 9.54879 14.4955C9.44496 14.4955 9.3421 14.4506 9.25901 14.3638L6.77637 11.7742H5.45412C5.20336 11.7745 5 11.5183 5 11.2027V8.92521C5 8.60942 5.20336 8.35343 5.45412 8.35343H6.77648L9.25912 5.76381C9.39476 5.62228 9.58286 5.59211 9.74204 5.68682C9.90122 5.78085 10.0031 5.98245 10.0031 6.20407L10.003 13.9238ZM11.7482 13.0306C11.7371 13.0315 11.7265 13.0321 11.7155 13.0321C11.5956 13.0321 11.4799 12.9724 11.3945 12.8647L11.3338 12.788C11.1745 12.5879 11.1558 12.2709 11.2899 12.0433C11.63 11.4661 11.8095 10.7819 11.8095 10.0642C11.8095 9.29214 11.6057 8.56802 11.22 7.96999C11.0732 7.74269 11.0868 7.41256 11.2513 7.20555L11.3119 7.12911C11.4027 7.01492 11.5242 6.95268 11.6558 6.96256C11.7839 6.97067 11.9035 7.04658 11.9848 7.17159C12.5197 7.99557 12.8023 8.99597 12.8023 10.0643C12.8023 11.0593 12.5524 12.0064 12.0795 12.8027C12.0005 12.9355 11.8797 13.0188 11.7482 13.0306ZM13.6257 14.7972C13.5436 14.9194 13.4248 14.9927 13.2977 14.9995C13.2915 14.9997 13.2851 15 13.2787 15C13.1584 15 13.043 14.9402 12.9575 14.8326L12.8978 14.7575C12.7311 14.5478 12.7199 14.2124 12.8714 13.9854C13.6038 12.8889 14.0073 11.4964 14.0073 10.0642C14.0073 8.57438 13.5753 7.1402 12.7912 6.02588C12.6323 5.79966 12.6403 5.45722 12.8095 5.24345L12.869 5.16835C12.9574 5.0566 13.0722 4.99504 13.2039 5.00031C13.3289 5.00478 13.4471 5.07432 13.5302 5.19203C14.478 6.53528 15 8.26576 15 10.0642C15.0002 11.7945 14.5121 13.4754 13.6257 14.7972Z" fill="white"/>
</svg>
