<svg width="20" height="20" viewBox="0 0 20 20" fill="none" xmlns="http://www.w3.org/2000/svg">
<path d="M14 9.68118C14 9.46118 13.8327 9.29294 13.614 9.29294C13.3952 9.29294 13.2279 9.46118 13.2279 9.68118C13.2279 11.1953 12.0055 12.4247 10.5 12.4247C8.99449 12.4247 7.77206 11.1953 7.77206 9.68118C7.77206 9.46118 7.60478 9.29294 7.38603 9.29294C7.16728 9.29294 7 9.46118 7 9.68118C7 11.48 8.33824 12.9941 10.114 13.1882V14.2235H8.7114C8.49265 14.2235 8.32537 14.3918 8.32537 14.6118C8.32537 14.8318 8.49265 15 8.7114 15H12.2886C12.5074 15 12.6746 14.8318 12.6746 14.6118C12.6746 14.3918 12.5074 14.2235 12.2886 14.2235H10.886V13.1882C12.6618 12.9941 14 11.48 14 9.68118Z" fill="white"/>
<path d="M10.5 4C9.31618 4 8.3511 4.97059 8.3511 6.16118V9.66824C8.3511 10.8718 9.31618 11.8294 10.5 11.8424C11.6838 11.8424 12.6489 10.8718 12.6489 9.68118V6.16118C12.6489 4.97059 11.6838 4 10.5 4Z" fill="white"/>
</svg>
